HIERARCHY
ROOT Hips
{
	OFFSET 0.000000 0.000000 0.000000
	CHANNELS 6 Xposition Yposition Zposition Xrotation Yrotation Zrotation
	JOINT LeftUpLeg_virtual
	{
		OFFSET 0.000000 0.000000 0.000000
		CHANNELS 3 Xrotation Yrotation Zrotation
		JOINT LeftUpLeg
		{
			OFFSET 11.394100 -6.187798 -0.413800
			CHANNELS 3 Xrotation Yrotation Zrotation
			JOINT LeftLeg
			{
				OFFSET 0.430247 -32.302673 3.732800
				CHANNELS 3 Xrotation Yrotation Zrotation
				JOINT LeftFoot
				{
					OFFSET -0.430247 -48.264931 -6.423300
					CHANNELS 3 Xrotation Yrotation Zrotation
					JOINT LeftToeBase
					{
						OFFSET 4.230900 -16.068199 23.438400
						CHANNELS 3 Xrotation Yrotation Zrotation
						JOINT LeftToe_End
						{
							OFFSET 4.510700 0.695400 19.974600
							CHANNELS 3 Xrotation Yrotation Zrotation
							End Site
							{
								OFFSET 0 0 0
							}
						}
					}
				}
			}
		}
	}
	JOINT RightUpLeg_virtual
	{
		OFFSET 0.000000 0.000000 0.000000
		CHANNELS 3 Xrotation Yrotation Zrotation
		JOINT RightUpLeg
		{
			OFFSET -11.333700 -6.187798 -0.413800
			CHANNELS 3 Xrotation Yrotation Zrotation
			JOINT RightLeg
			{
				OFFSET -0.430392 -32.302628 3.733000
				CHANNELS 3 Xrotation Yrotation Zrotation
				JOINT RightFoot
				{
					OFFSET 0.430392 -48.264973 -6.423500
					CHANNELS 3 Xrotation Yrotation Zrotation
					JOINT RightToeBase
					{
						OFFSET -4.230900 -16.068199 23.438400
						CHANNELS 3 Xrotation Yrotation Zrotation
						JOINT RightToe_End
						{
							OFFSET -4.510700 0.695400 19.974600
							CHANNELS 3 Xrotation Yrotation Zrotation
							End Site
							{
								OFFSET 0 0 0
							}
						}
					}
				}
			}
		}
	}
	JOINT Spine_virtual
	{
		OFFSET 0.000000 0.000000 0.000000
		CHANNELS 3 Xrotation Yrotation Zrotation
		JOINT Spine
		{
			OFFSET -0.002400 12.777504 0.315300
			CHANNELS 3 Xrotation Yrotation Zrotation
			JOINT Spine1
			{
				OFFSET -0.002067 5.816869 0.032633
				CHANNELS 3 Xrotation Yrotation Zrotation
				JOINT Spine1_split
				{
					OFFSET -0.002067 5.816869 0.032633
					CHANNELS 3 Xrotation Yrotation Zrotation
					JOINT Spine2
					{
						OFFSET -0.002067 5.816869 0.032633
						CHANNELS 3 Xrotation Yrotation Zrotation
						JOINT Neck_virtual
						{
							OFFSET 0.000000 0.000000 0.000000
							CHANNELS 3 Xrotation Yrotation Zrotation
							JOINT Neck
							{
								OFFSET -0.003700 21.199493 -0.826900
								CHANNELS 3 Xrotation Yrotation Zrotation
								JOINT Head
								{
									OFFSET 0.000000 20.442200 4.834800
									CHANNELS 3 Xrotation Yrotation Zrotation
									JOINT HeadTop_End
									{
										OFFSET 0.000000 34.668396 4.968400
										CHANNELS 3 Xrotation Yrotation Zrotation
										End Site
										{
											OFFSET 0 0 0
										}
									}
								}
							}
						}
						JOINT LeftShoulder_virtual
						{
							OFFSET 0.000000 0.000000 0.000000
							CHANNELS 3 Xrotation Yrotation Zrotation
							JOINT LeftShoulder
							{
								OFFSET 3.288150 8.794197 -1.372250
								CHANNELS 3 Xrotation Yrotation Zrotation
								JOINT LeftShoulder_split
								{
									OFFSET 3.288150 8.794197 -1.372250
									CHANNELS 3 Xrotation Yrotation Zrotation
									JOINT LeftArm
									{
										OFFSET 11.953299 -2.279007 -0.146200
										CHANNELS 3 Xrotation Yrotation Zrotation
										JOINT LeftForeArm
										{
											OFFSET 18.448900 0.000000 0.000000
											CHANNELS 3 Xrotation Yrotation Zrotation
											JOINT LeftHand
											{
												OFFSET 29.527798 0.000000 0.000000
												CHANNELS 3 Xrotation Yrotation Zrotation
												End Site
												{
													OFFSET 0 0 0
												}
											}
										}
									}
								}
							}
						}
						JOINT RightShoulder_virtual
						{
							OFFSET 0.000000 0.000000 0.000000
							CHANNELS 3 Xrotation Yrotation Zrotation
							JOINT RightShoulder
							{
								OFFSET -3.249400 8.794197 -1.372250
								CHANNELS 3 Xrotation Yrotation Zrotation
								JOINT RightShoulder_split
								{
									OFFSET -3.249400 8.794197 -1.372250
									CHANNELS 3 Xrotation Yrotation Zrotation
									JOINT RightArm
									{
										OFFSET -11.953299 -2.279007 -0.146200
										CHANNELS 3 Xrotation Yrotation Zrotation
										JOINT RightForeArm
										{
											OFFSET -18.448900 0.000000 0.000000
											CHANNELS 3 Xrotation Yrotation Zrotation
											JOINT RightHand
											{
												OFFSET -29.527802 0.000000 0.000000
												CHANNELS 3 Xrotation Yrotation Zrotation
												End Site
												{
													OFFSET 0 0 0
												}
											}
										}
									}
								}
							}
						}
					}
				}
			}
		}
	}
}
MOTION
Frames: 11
Frame Time: 0.03333333
-3.835964 89.792404 -0.123344 0.000000 0.000000 0.000000 51.952550 -72.845074 53.454539 -57.201431 2.542380 -2.158030 44.354299 -6.805369 2.848706 -0.822527 -1.093330 2.050741 1.333156 2.623942 -1.721286 0.000000 0.000000 0.000000 56.173743 -73.667115 58.435677 -47.395161 -1.041118 -18.174590 41.170400 -6.736836 -2.803106 -9.593305 -0.625539 14.771273 0.450942 0.578538 -1.315003 0.000000 0.000000 0.000000 52.861925 -71.807199 53.560592 6.141698 3.215296 4.230513 13.235874 6.737020 6.541297 0.506162 -1.185216 0.630857 0.000000 0.000000 0.000000 12.112434 6.549790 6.271121 1.735485 -0.666991 2.063332 8.643054 4.857952 -5.518925 0.000000 0.000000 0.000000 12.710512 6.535072 6.263769 1.551979 -2.076942 -10.124039 0.766873 1.531472 -0.824106 -52.419410 -25.548903 -93.594321 -0.706806 -24.368220 -0.030191 0.000000 0.000000 0.000000 12.097004 6.729084 6.395270 0.943781 12.634269 22.451025 -6.441700 -0.341281 -0.440033 -52.922942 22.514344 73.172670 0.277055 5.900900 1.374613 0.000000 0.000000 0.000000 
-3.811066 89.794029 -0.025551 0.000000 0.000000 0.000000 52.174234 -72.897680 53.649917 -57.275685 2.594100 -2.173949 44.357482 -6.769911 2.868167 -0.778627 -1.050476 2.022602 1.323420 2.624887 -1.724695 0.000000 0.000000 0.000000 56.086344 -73.651883 58.333572 -47.376948 -1.055418 -18.184303 41.124914 -6.728389 -2.805129 -9.534258 -0.660894 14.724462 0.438313 0.589060 -1.301551 0.000000 0.000000 0.000000 52.866405 -71.807029 53.543472 6.080231 3.221358 4.230346 13.272925 6.720786 6.520124 0.517810 -1.224882 0.610578 0.000000 0.000000 0.000000 12.133584 6.540354 6.265505 1.730371 -0.645453 2.074321 8.586404 4.910489 -5.547737 0.000000 0.000000 0.000000 12.701305 6.520788 6.269684 1.563294 -2.060038 -10.154498 0.786969 1.491782 -0.803044 -52.407423 -25.563463 -93.575675 -0.718214 -24.337892 -0.055921 0.000000 0.000000 0.000000 12.082620 6.696846 6.392843 0.966452 12.572421 22.414133 -6.385613 -0.288277 -0.414957 -52.804466 22.344697 73.144209 0.233553 6.214490 1.399414 0.000000 0.000000 0.000000 
-3.779973 89.808670 0.107857 0.000000 0.000000 0.000000 52.357956 -72.900330 53.798115 -57.348092 2.591159 -2.228527 44.370152 -6.779881 2.872892 -0.778127 -1.038256 2.003072 1.316481 2.637438 -1.755050 0.000000 0.000000 0.000000 55.935021 -73.591661 58.156923 -47.385523 -1.112358 -18.234503 41.092815 -6.716730 -2.795288 -9.455410 -0.713001 14.705095 0.425694 0.605155 -1.273836 0.000000 0.000000 0.000000 52.880656 -71.780630 53.517951 5.992735 3.236955 4.234506 13.321528 6.718566 6.480081 0.549614 -1.188847 0.617561 0.000000 0.000000 0.000000 12.160968 6.536453 6.237058 1.723706 -0.598954 2.051643 8.412743 5.093897 -5.588355 0.000000 0.000000 0.000000 12.706683 6.516873 6.253580 1.578098 -2.058688 -10.178079 0.794498 1.435147 -0.774541 -52.313143 -25.594787 -93.535595 -0.711752 -24.343785 -0.069628 0.000000 0.000000 0.000000 12.100198 6.675794 6.361879 0.985366 12.499698 22.363257 -6.306393 -0.230497 -0.373330 -52.340696 22.386674 72.993057 0.189295 7.008604 1.409872 0.000000 0.000000 0.000000 
-3.744439 89.826897 0.264748 0.000000 0.000000 0.000000 52.461781 -72.848175 53.858275 -57.419556 2.549947 -2.317022 44.393569 -6.788904 2.854932 -0.807524 -1.025971 2.023368 1.339907 2.661053 -1.823714 0.000000 0.000000 0.000000 55.680973 -73.474531 57.863600 -47.402759 -1.204032 -18.318523 41.064590 -6.720926 -2.769955 -9.403216 -0.785353 14.685882 0.441348 0.626262 -1.245953 0.000000 0.000000 0.000000 52.857786 -71.716932 53.440087 5.894889 3.257835 4.240607 13.377936 6.725534 6.426738 0.577270 -1.133848 0.635028 0.000000 0.000000 0.000000 12.194174 6.533712 6.192135 1.711699 -0.530451 2.001054 8.148713 5.394467 -5.633997 0.000000 0.000000 0.000000 12.726551 6.517918 6.219731 1.595458 -2.065734 -10.194110 0.778076 1.374807 -0.762997 -52.163490 -25.667824 -93.469110 -0.689700 -24.422246 -0.075957 0.000000 0.000000 0.000000 12.138517 6.664153 6.310476 0.991062 12.426944 22.299676 -6.244165 -0.155281 -0.324440 -51.631937 22.647866 72.755114 0.161517 8.008880 1.399502 0.000000 0.000000 0.000000 
-3.702645 89.843018 0.451748 0.000000 0.000000 0.000000 52.531398 -72.749608 53.866717 -57.500241 2.506270 -2.418413 44.422591 -6.742055 2.806147 -0.855144 -0.983338 2.130388 1.384774 2.691628 -1.922915 0.000000 0.000000 0.000000 55.423877 -73.330222 57.549391 -47.419924 -1.309895 -18.422921 41.028366 -6.746773 -2.731160 -9.418567 -0.890536 14.632987 0.532127 0.646792 -1.227425 0.000000 0.000000 0.000000 52.761992 -71.619397 53.284642 5.806319 3.275706 4.244061 13.441385 6.731273 6.362741 0.610556 -1.073477 0.651129 0.000000 0.000000 0.000000 12.231259 6.525196 6.138021 1.692091 -0.443794 1.913370 7.823415 5.781572 -5.666826 0.000000 0.000000 0.000000 12.759064 6.516365 6.173670 1.612579 -2.075874 -10.202402 0.758341 1.317868 -0.789994 -51.996434 -25.818982 -93.370694 -0.650710 -24.605598 -0.077683 0.000000 0.000000 0.000000 12.184875 6.656266 6.247629 0.980519 12.362158 22.229327 -6.202908 -0.059252 -0.275013 -50.826019 23.074017 72.465882 0.157758 8.958404 1.369836 0.000000 0.000000 0.000000 
-3.657076 89.844185 0.639404 0.000000 0.000000 0.000000 52.601124 -72.610088 53.843904 -57.601280 2.487006 -2.505739 44.484353 -6.620179 2.733700 -0.865248 -0.906267 2.333130 1.394881 2.726254 -2.023851 0.000000 0.000000 0.000000 55.275041 -73.192334 57.322718 -47.432891 -1.392376 -18.534465 40.997842 -6.775324 -2.684047 -9.489261 -1.017788 14.571761 0.695551 0.654494 -1.217399 0.000000 0.000000 0.000000 52.582888 -71.504253 53.048621 5.734518 3.282182 4.242181 13.506754 6.726092 6.289149 0.621828 -1.031193 0.645241 0.000000 0.000000 0.000000 12.268068 6.504523 6.079127 1.671349 -0.343689 1.785954 7.470476 6.229660 -5.668902 0.000000 0.000000 0.000000 12.800153 6.505866 6.117333 1.627827 -2.082826 -10.210632 0.758026 1.245043 -0.827353 -51.849100 -26.081946 -93.239978 -0.603162 -24.918362 -0.081314 0.000000 0.000000 0.000000 12.231242 6.646461 6.179418 0.953252 12.312310 22.145968 -6.180157 0.025533 -0.214587 -50.061533 23.561163 72.165764 0.176937 9.697958 1.326843 0.000000 0.000000 0.000000 
-3.604219 89.827385 0.854996 0.000000 0.000000 0.000000 52.708204 -72.467317 53.833772 -57.740117 2.510512 -2.556732 44.617558 -6.451168 2.647939 -0.791761 -0.808502 2.605670 1.367371 2.758834 -2.101662 0.000000 0.000000 0.000000 55.268077 -73.079466 57.223714 -47.474032 -1.380568 -18.648303 40.989229 -6.738157 -2.645414 -9.509371 -1.122791 14.611875 0.774738 0.647647 -1.225806 0.000000 0.000000 0.000000 52.326981 -71.380156 52.742919 5.684868 3.271435 4.225857 13.571232 6.700344 6.207869 0.601473 -1.011554 0.625678 0.000000 0.000000 0.000000 12.303306 6.470748 6.019496 1.653872 -0.243417 1.622419 7.105171 6.699915 -5.626580 0.000000 0.000000 0.000000 12.844870 6.483735 6.052377 1.637550 -2.095563 -10.219116 0.779730 1.169033 -0.852665 -51.724124 -26.474534 -93.066839 -0.549158 -25.357258 -0.093423 0.000000 0.000000 0.000000 12.271561 6.628617 6.109811 0.914446 12.271675 22.052579 -6.160102 0.103901 -0.156204 -49.380410 24.002376 71.891388 0.206447 10.241432 1.278997 0.000000 0.000000 0.000000 
-3.545192 89.795105 1.072937 0.000000 0.000000 0.000000 52.769205 -72.337721 53.765289 -57.936581 2.597935 -2.560157 44.828061 -6.252123 2.544809 -0.660094 -0.721172 2.933614 1.351806 2.781650 -2.145391 0.000000 0.000000 0.000000 55.422942 -73.000638 57.274548 -47.562418 -1.228431 -18.738885 41.048402 -6.603204 -2.624107 -9.377282 -1.189840 14.835601 0.696349 0.623479 -1.230765 0.000000 0.000000 0.000000 52.071088 -71.270599 52.431606 5.667775 3.246979 4.191671 13.625146 6.660167 6.122830 0.569065 -0.955895 0.604864 0.000000 0.000000 0.000000 12.335357 6.425615 5.960335 1.646051 -0.157477 1.430756 6.738217 7.147219 -5.536521 0.000000 0.000000 0.000000 12.886503 6.453129 5.980555 1.638394 -2.124255 -10.240647 0.802600 1.119036 -0.849355 -51.593811 -26.985391 -92.836601 -0.497766 -25.897844 -0.120701 0.000000 0.000000 0.000000 12.304537 6.601097 6.038389 0.874851 12.234675 21.940762 -6.105947 0.157722 -0.127303 -48.771621 24.328618 71.640515 0.238767 10.740863 1.244809 0.000000 0.000000 0.000000 
-3.476658 89.745758 1.315216 0.000000 0.000000 0.000000 52.728497 -72.237078 53.593281 -58.162496 2.735636 -2.537373 45.080410 -6.038417 2.427473 -0.518543 -0.667572 3.282161 1.363357 2.796673 -2.127989 0.000000 0.000000 0.000000 55.670881 -72.919011 57.394032 -47.674078 -0.951464 -18.777295 41.183404 -6.427045 -2.614031 -9.132646 -1.245493 15.161178 0.597901 0.596173 -1.197143 0.000000 0.000000 0.000000 51.934672 -71.194805 52.209355 5.671627 3.224771 4.143423 13.664117 6.619099 6.042953 0.536224 -0.885666 0.608170 0.000000 0.000000 0.000000 12.369312 6.377451 5.902398 1.655833 -0.099205 1.238576 6.377031 7.545521 -5.401946 0.000000 0.000000 0.000000 12.924556 6.417712 5.902293 1.629111 -2.182092 -10.276388 0.817443 1.127635 -0.835073 -51.450920 -27.566452 -92.544501 -0.462245 -26.497393 -0.170337 0.000000 0.000000 0.000000 12.335422 6.569636 5.967923 0.840610 12.200375 21.801916 -6.010001 0.177824 -0.136642 -48.194621 24.511368 71.411151 0.263666 11.324835 1.227751 0.000000 0.000000 0.000000 
-3.391964 89.682373 1.590164 0.000000 0.000000 0.000000 52.652596 -72.182744 53.394358 -58.355975 2.900304 -2.515241 45.308364 -5.803745 2.284370 -0.427567 -0.647282 3.637241 1.393128 2.805509 -2.048564 0.000000 0.000000 0.000000 55.967530 -72.847663 57.544378 -47.814384 -0.594118 -18.762974 41.335171 -6.269424 -2.617202 -8.909820 -1.334487 15.445547 0.593127 0.589128 -1.123309 0.000000 0.000000 0.000000 52.029338 -71.162006 52.184226 5.683316 3.219427 4.079376 13.693708 6.586986 5.972034 0.560067 -0.825252 0.632985 0.000000 0.000000 0.000000 12.415666 6.336939 5.844539 1.674917 -0.081846 1.070858 6.018881 7.877431 -5.233908 0.000000 0.000000 0.000000 12.965764 6.383292 5.821888 1.610518 -2.276680 -10.322538 0.806745 1.185579 -0.834115 -51.261796 -28.163650 -92.180465 -0.438512 -27.122828 -0.237812 0.000000 0.000000 0.000000 12.369327 6.542714 5.904742 0.815363 12.160025 21.645103 -5.882961 0.186968 -0.184221 -47.614003 24.605681 71.196956 0.272625 12.045001 1.221500 0.000000 0.000000 0.000000 
-3.292957 89.611313 1.869019 0.000000 0.000000 0.000000 52.569418 -72.161167 53.211740 -58.482299 3.068878 -2.524168 45.452727 -5.507944 2.106966 -0.427620 -0.668310 4.017706 1.386517 2.815566 -1.914423 0.000000 0.000000 0.000000 56.289628 -72.806982 57.718309 -47.959809 -0.256037 -18.740536 41.504249 -6.205565 -2.620593 -8.751991 -1.481959 15.575111 0.775725 0.614498 -1.039272 0.000000 0.000000 0.000000 52.354097 -71.163031 52.362361 5.696372 3.243250 4.013171 13.714627 6.577384 5.913077 0.590913 -0.765261 0.666781 0.000000 0.000000 0.000000 12.481095 6.311963 5.783776 1.688395 -0.099809 0.936150 5.652170 8.158448 -5.049234 0.000000 0.000000 0.000000 13.015809 6.356974 5.744733 1.588054 -2.397884 -10.388135 0.796373 1.272204 -0.852074 -51.011032 -28.728073 -91.750723 -0.425384 -27.758031 -0.315809 0.000000 0.000000 0.000000 12.411117 6.526067 5.851740 0.803104 12.100927 21.465447 -5.741945 0.212307 -0.242803 -47.027666 24.708706 70.984599 0.266756 12.867635 1.226536 0.000000 0.000000 0.000000 
